<?xml version="1.0" encoding="iso-8859-1"?>
<!-- Generator: Adobe Illustrator 19.0.0, SVG Export Plug-In . SVG Version: 6.00 Build 0)  -->
<svg version="1.1" id="Capa_1" xmlns="http://www.w3.org/2000/svg" xmlns:xlink="http://www.w3.org/1999/xlink" x="0px" y="0px"
	 viewBox="0 0 512.001 512.001" style="enable-background:new 0 0 512.001 512.001;" xml:space="preserve">
<g>
	<g>
		<path d="M510.871,469.922c-3.151-7.676-11.925-11.352-19.571-8.174c-5.83,2.388-11.47,5.376-16.875,8.965
			c-22.295,14.854-51.064,14.854-73.359,0c-32.402-21.592-75.238-21.592-107.64,0c-22.295,14.854-51.064,14.854-73.359,0
			c-32.402-21.592-75.238-21.592-107.64,0c-22.295,14.854-51.064,14.854-73.359,0c-5.859-3.911-12.144-7.163-18.662-9.683
			c-7.72-2.988-16.421,0.864-19.395,8.584c-2.988,7.734,0.864,16.421,8.584,19.395c4.482,1.729,8.789,3.97,12.832,6.665
			c32.402,21.592,74.238,21.592,106.64,0c22.295-14.854,52.064-14.854,74.359,0c32.402,21.592,74.238,21.592,106.64,0
			c22.295-14.854,52.064-14.854,74.359,0c16.201,10.796,34.761,16.201,53.32,16.201c18.559,0,37.119-5.405,53.306-16.201
			c3.721-2.476,7.632-4.526,11.646-6.182C510.358,486.343,514.02,477.583,510.871,469.922z"/>
	</g>
</g>
<g>
	<g>
		<path d="M510.872,409.922c-3.149-7.676-11.924-11.353-19.57-8.174c-5.83,2.388-11.47,5.376-16.875,8.965
			c-22.295,14.854-51.064,14.854-73.359,0c-32.402-21.592-75.238-21.592-107.64,0c-22.295,14.854-51.064,14.854-73.359,0
			c-32.402-21.592-75.238-21.592-107.64,0c-22.295,14.854-51.064,14.854-73.359,0c-5.859-3.911-12.144-7.163-18.662-9.683
			c-7.72-2.959-16.421,0.85-19.395,8.584c-2.99,7.735,0.862,16.421,8.583,19.395c4.482,1.729,8.789,3.97,12.832,6.665
			c32.402,21.592,74.238,21.592,106.64,0c22.295-14.854,52.064-14.854,74.359,0c32.402,21.592,74.238,21.592,106.64,0
			c22.295-14.854,52.064-14.854,74.359,0c16.201,10.796,34.761,16.201,53.32,16.201s37.119-5.405,53.306-16.201
			c3.721-2.476,7.632-4.526,11.646-6.182C510.359,426.343,514.021,417.583,510.872,409.922z"/>
	</g>
</g>
<g>
	<g>
		<path d="M135.001,211.125c-8.276,0-15,6.724-15,15v147.368c9.752-3.82,19.775-6.548,30-7.841V226.125
			C150.001,217.849,143.277,211.125,135.001,211.125z"/>
	</g>
</g>
<g>
	<g>
		<path d="M256,211.125c-8.276,0-15,6.724-15,15v161.648c9.531,4.677,20.319,4.916,30,0.705V226.125
			C271,217.849,264.276,211.125,256,211.125z"/>
	</g>
</g>
<g>
	<g>
		<path d="M376.999,211.125c-8.276,0-15,6.724-15,15v139.418c10.21,1.166,20.237,3.695,30,7.377V226.125
			C391.999,217.849,385.275,211.125,376.999,211.125z"/>
	</g>
</g>
<g>
	<g>
		<path d="M466.999,0.126h-60c-8.291,0-15,6.709-15,15v15H120.001v-15c0-8.291-6.709-15-15-15h-60c-8.291,0-15,6.709-15,15v105.999
			h451.997V15.126C481.999,6.835,475.29,0.126,466.999,0.126z"/>
	</g>
</g>
<g>
	<g>
		<path d="M30.001,151.126v221.601c8.855,3.329,17.521,7.553,25.723,13.026c10.343,6.905,23.146,7.568,34.277,2.725V226.125
			c0-24.814,20.186-45,45-45s45,20.186,45,45v139.418c10.21,1.166,21.237,3.695,31,7.377V226.125c0-24.814,20.186-45,45-45
			c24.814,0,45,20.186,45,45v147.368c9.752-3.82,20.775-6.548,31-7.841V226.125c0-24.814,20.186-45,45-45s45,20.186,45,45v161.648
			c11.453,5.62,24.948,5.195,35.786-2.021c7.784-5.182,15.921-9.298,24.214-12.534V151.126H30.001z"/>
	</g>
</g>
<g>
</g>
<g>
</g>
<g>
</g>
<g>
</g>
<g>
</g>
<g>
</g>
<g>
</g>
<g>
</g>
<g>
</g>
<g>
</g>
<g>
</g>
<g>
</g>
<g>
</g>
<g>
</g>
<g>
</g>
</svg>
